<svg xmlns="http://www.w3.org/2000/svg" version="1.1" xmlns:xlink="http://www.w3.org/1999/xlink" xmlns:svgjs="http://svgjs.dev/svgjs" width="1500" height="1500" viewBox="0 0 1500 1500"><rect width="1500" height="1500" fill="#000000"></rect><g transform="matrix(0.6666666666666666,0,0,0.6666666666666666,249.39393939393938,601.0788429383554)"><svg viewBox="0 0 396 117" data-background-color="#000000" preserveAspectRatio="xMidYMid meet" height="443" width="1500" xmlns="http://www.w3.org/2000/svg" xmlns:xlink="http://www.w3.org/1999/xlink"><g id="tight-bounds" transform="matrix(1,0,0,1,0.2400000000000091,0.49698208649809317)"><svg viewBox="0 0 395.52 116.00603582700381" height="116.00603582700381" width="395.52"><g><svg viewBox="0 0 666.7132921354296 195.54704200496133" height="116.00603582700381" width="395.52"><g transform="matrix(1,0,0,1,271.19329213542954,41.09276536567384)"><svg viewBox="0 0 395.52 113.36151127361364" height="113.36151127361364" width="395.52"><g id="textblocktransform"><svg viewBox="0 0 395.52 113.36151127361364" height="113.36151127361364" width="395.52" id="textblock"><g><svg viewBox="0 0 395.52 113.36151127361364" height="113.36151127361364" width="395.52"><g transform="matrix(1,0,0,1,0,0)"><svg width="395.52" viewBox="0.15 -33.84 120.17999999999999 34.45" height="113.36151127361364" data-palette-color="#ffffff"><path d="M16.16-33.84L27.71 0 23.44 0 20.12-10.5 7.62-10.5 4.27 0 0.15 0 11.69-33.84 16.16-33.84ZM10.35-19.07L10.35-19.07 8.64-13.7 19.12-13.7 17.41-19.07Q16.48-21.92 15.65-24.73 14.82-27.54 13.96-30.49L13.96-30.49 13.75-30.49Q12.99-27.54 12.13-24.73 11.28-21.92 10.35-19.07ZM36.11 0L32.15 0 32.15-24.98 35.45-24.98 35.81-21.31 35.91-21.31Q37.57-23.14 39.54-24.38 41.5-25.61 43.75-25.61L43.75-25.61Q46.6-25.61 48.23-24.32 49.85-23.02 50.58-20.8L50.58-20.8Q52.56-22.92 54.61-24.27 56.66-25.61 58.88-25.61L58.88-25.61Q62.72-25.61 64.6-23.13 66.48-20.65 66.48-15.87L66.48-15.87 66.48 0 62.55 0 62.55-15.36Q62.55-18.92 61.37-20.56 60.2-22.19 57.76-22.19L57.76-22.19Q54.88-22.19 51.32-18.19L51.32-18.19 51.32 0 47.34 0 47.34-15.36Q47.34-18.92 46.18-20.56 45.02-22.19 42.55-22.19L42.55-22.19Q39.67-22.19 36.11-18.19L36.11-18.19 36.11 0ZM80.46 0.61L80.46 0.61Q77.34 0.61 75.24-1.21 73.14-3.03 73.14-6.42L73.14-6.42Q73.14-10.52 76.86-12.72 80.59-14.92 88.62-15.82L88.62-15.82Q88.62-17.48 88.17-18.97 87.71-20.46 86.58-21.41 85.44-22.36 83.34-22.36L83.34-22.36Q81.12-22.36 79.18-21.51 77.24-20.65 75.78-19.73L75.78-19.73 74.24-22.36Q75.9-23.51 78.43-24.56 80.95-25.61 83.98-25.61L83.98-25.61Q88.54-25.61 90.56-22.8 92.57-20 92.57-15.41L92.57-15.41 92.57 0 89.28 0 88.96-3.03 88.81-3.03Q87.01-1.54 84.89-0.46 82.78 0.61 80.46 0.61ZM81.54-2.56L81.54-2.56Q83.42-2.56 85.07-3.44 86.71-4.32 88.62-5.96L88.62-5.96 88.62-13.18Q84.3-12.65 81.76-11.77 79.22-10.89 78.12-9.64 77.02-8.4 77.02-6.74L77.02-6.74Q77.02-4.52 78.34-3.54 79.66-2.56 81.54-2.56ZM104.51 0L100.55 0 100.55-24.98 103.85-24.98 104.22-21.39 104.31-21.39Q106.12-23.17 108.15-24.39 110.17-25.61 112.76-25.61L112.76-25.61Q116.67-25.61 118.5-23.13 120.33-20.65 120.33-15.87L120.33-15.87 120.33 0 116.42 0 116.42-15.36Q116.42-18.92 115.28-20.56 114.13-22.19 111.52-22.19L111.52-22.19Q109.59-22.19 108.02-21.17 106.46-20.14 104.51-18.19L104.51-18.19 104.51 0Z" opacity="1" transform="matrix(1,0,0,1,0,0)" fill="#ffffff" class="wordmark-text-0" data-fill-palette-color="primary" id="text-0"></path></svg></g></svg></g></svg></g></svg></g><g><svg viewBox="0 0 244.43135999999996 195.54704200496133" height="195.54704200496133" width="244.43135999999996"><g><svg xmlns="http://www.w3.org/2000/svg" xmlns:xlink="http://www.w3.org/1999/xlink" version="1.1" x="0" y="0" viewBox="0 9.999999248585059 99.99900168867421 80.00000075141494" enable-background="new 0 0 100 100" xml:space="preserve" height="195.54704200496133" width="244.43135999999996" class="icon-icon-0" data-fill-palette-color="accent" id="icon-0"><path fill="#ffffff" d="M97.327 10H2.673A2.673 2.673 0 0 0 0 12.673V87.327A2.673 2.673 0 0 0 2.673 90H97.326A2.673 2.673 0 0 0 99.999 87.327V12.673A2.67 2.67 0 0 0 97.327 10M95 85H5V30H95zM5 25V15H95V25z" data-fill-palette-color="accent"></path><circle fill="#ffffff" cx="10" cy="20" r="2.0" data-fill-palette-color="accent"></circle><circle fill="#ffffff" cx="17.5" cy="20" r="2.0" data-fill-palette-color="accent"></circle><circle fill="#ffffff" cx="25" cy="20" r="2.0" data-fill-palette-color="accent"></circle><path fill="#ffffff" d="M32.116 73.384A1.96 1.96 0 0 1 29.348 73.384L15.61 59.645A2.325 2.325 0 0 1 15.61 56.355L29.349 42.616A1.96 1.96 0 0 1 32.117 42.616L32.76 43.259A2.135 2.135 0 0 1 32.76 46.277L21.143 57.893A0.15 0.15 0 0 0 21.143 58.107L32.884 69.848A1.96 1.96 0 0 1 32.884 72.616z" data-fill-palette-color="accent"></path><path fill="#ffffff" d="M68.019 73.384A1.96 1.96 0 0 0 70.787 73.384L84.526 59.645A2.325 2.325 0 0 0 84.526 56.355L70.787 42.616A1.96 1.96 0 0 0 68.019 42.616L67.376 43.259A2.135 2.135 0 0 0 67.376 46.277L78.992 57.893A0.15 0.15 0 0 1 78.992 58.107L67.251 69.848A1.96 1.96 0 0 0 67.251 72.616z" data-fill-palette-color="accent"></path><path fill="#ffffff" d="M61.388 41.954A1.96 1.96 0 0 0 60.471 40.77L59.528 40.231A1.957 1.957 0 0 0 56.858 40.959L38.8 72.56A1.96 1.96 0 0 0 39.528 75.23L40.471 75.769C41.409 76.305 42.605 75.979 43.141 75.041L61.2 43.44C61.457 42.989 61.525 42.454 61.388 41.954" data-fill-palette-color="accent"></path></svg></g></svg></g></svg></g><defs></defs></svg><rect width="395.52" height="116.00603582700381" fill="none" stroke="none" visibility="hidden"></rect></g></svg></g></svg>