<svg xmlns="http://www.w3.org/2000/svg" version="1.1" xmlns:xlink="http://www.w3.org/1999/xlink" xmlns:svgjs="http://svgjs.dev/svgjs" width="1500" height="939" viewBox="0 0 1500 939"><g transform="matrix(1,0,0,1,-0.9090909090909918,-1.5145161290323017)"><svg viewBox="0 0 396 248" data-background-color="#052560" preserveAspectRatio="xMidYMid meet" height="939" width="1500" xmlns="http://www.w3.org/2000/svg" xmlns:xlink="http://www.w3.org/1999/xlink"><g id="tight-bounds" transform="matrix(1,0,0,1,0.2400000000000091,0.4000000000000057)"><svg viewBox="0 0 395.52 247.2" height="247.2" width="395.52"><g><svg></svg></g><g><svg viewBox="0 0 395.52 247.2" height="247.2" width="395.52"><g transform="matrix(1,0,0,1,88.6673237893806,47.215199999999996)"><svg viewBox="0 0 218.18535242123878 152.7696" height="152.7696" width="218.18535242123878"><g><svg viewBox="0 0 284.6754265883186 199.32479686245603" height="152.7696" width="218.18535242123878"><g transform="matrix(1,0,0,1,130.88489898773003,0)"><svg viewBox="0 0 153.79052760058858 199.32479686245603" height="199.32479686245603" width="153.79052760058858"><g id="textblocktransform"><svg viewBox="0 0 153.79052760058858 199.32479686245603" height="199.32479686245603" width="153.79052760058858" id="textblock"><g><svg viewBox="0 0 153.79052760058858 151.825483872" height="151.825483872" width="153.79052760058858"><g transform="matrix(1,0,0,1,0,0)"><svg width="153.79052760058858" viewBox="0 -35.84 36.3 35.84" height="151.825483872" data-palette-color="#cef4eb"><path d="M36.3 0L25.76 0 24-6.69 12.4-6.69 10.6 0 0 0 11.65-35.84 24.51-35.84 36.3 0ZM14.4-14.6L22-14.6 20.46-20.46Q19.92-22.41 19.15-25.51 18.38-28.61 18.14-29.96L18.14-29.96Q17.92-28.71 17.27-25.85 16.63-23 14.4-14.6L14.4-14.6Z" opacity="1" transform="matrix(1,0,0,1,0,0)" fill="#cef4eb" class="wordmark-text-0" data-fill-palette-color="primary" id="text-0"></path></svg></g></svg></g><g transform="matrix(1,0,0,1,0,187.66783680256628)"><svg viewBox="0 0 90.29041875430555 11.656960059889734" height="11.656960059889734" width="90.29041875430555"><g transform="matrix(1,0,0,1,0,0)"><svg width="90.29041875430555" viewBox="3 -37.7 376.01 48.550000000000004" height="11.656960059889734" data-palette-color="#cef4eb"><path d="M9.35 0L3 0 3-34.55 19.7-34.55 19-29.8 9.35-29.8 9.35-19.25 17.75-19.25 17.75-14.5 9.35-14.5 9.35 0ZM34.65-27.1Q35.8-27.1 36.7-26.75L36.7-26.75 35.7-20.85Q34.7-21.1 33.85-21.1L33.85-21.1Q31.95-21.1 30.85-19.45 29.75-17.8 29.15-14.55L29.15-14.55 29.15 0 23 0 23-26.45 28.35-26.45 28.8-21.85Q30.65-27.1 34.65-27.1L34.65-27.1ZM48.95-27.15Q53.95-27.15 56.72-23.65 59.5-20.15 59.5-13.25L59.5-13.25Q59.5-6.65 56.7-2.95 53.9 0.75 48.95 0.75L48.95 0.75Q44 0.75 41.2-2.88 38.4-6.5 38.4-13.25L38.4-13.25Q38.4-19.95 41.2-23.55 44-27.15 48.95-27.15L48.95-27.15ZM48.95-22.5Q46.8-22.5 45.8-20.38 44.8-18.25 44.8-13.25L44.8-13.25Q44.8-8.2 45.8-6.08 46.8-3.95 48.95-3.95L48.95-3.95Q51.1-3.95 52.1-6.08 53.1-8.2 53.1-13.25L53.1-13.25Q53.1-18.3 52.1-20.4 51.1-22.5 48.95-22.5L48.95-22.5ZM76.39-27.15Q79.24-27.15 80.89-25.1 82.54-23.05 82.54-19.6L82.54-19.6 82.54 0 76.39 0 76.39-18.9Q76.39-20.8 75.87-21.63 75.34-22.45 74.34-22.45L74.34-22.45Q72.24-22.45 70.19-18.5L70.19-18.5 70.19 0 64.04 0 64.04-26.45 69.39-26.45 69.84-23Q71.19-25.1 72.72-26.13 74.24-27.15 76.39-27.15L76.39-27.15ZM99.24-5L101.39-1.2Q98.94 0.75 95.64 0.75L95.64 0.75Q92.19 0.75 90.39-1.23 88.59-3.2 88.59-6.6L88.59-6.6 88.59-22 85.49-22 85.49-26.45 88.59-26.45 88.59-32.3 94.74-33.05 94.74-26.45 99.74-26.45 99.14-22 94.74-22 94.74-6.6Q94.74-4.2 96.79-4.2L96.79-4.2Q97.44-4.2 97.94-4.38 98.44-4.55 99.24-5L99.24-5ZM122.79-13.85Q122.79-13.4 122.64-11.3L122.64-11.3 108.99-11.3Q109.19-7.2 110.41-5.58 111.64-3.95 113.89-3.95L113.89-3.95Q115.44-3.95 116.69-4.48 117.94-5 119.39-6.15L119.39-6.15 121.94-2.65Q118.44 0.75 113.54 0.75L113.54 0.75Q108.34 0.75 105.56-2.85 102.79-6.45 102.79-13L102.79-13Q102.79-19.55 105.44-23.35 108.09-27.15 112.94-27.15L112.94-27.15Q117.59-27.15 120.19-23.78 122.79-20.4 122.79-13.85L122.79-13.85ZM116.79-15.3L116.79-15.65Q116.79-19.4 115.89-21.13 114.99-22.85 112.99-22.85L112.99-22.85Q111.14-22.85 110.16-21.18 109.19-19.5 108.99-15.3L108.99-15.3 116.79-15.3ZM139.44-27.15Q142.29-27.15 143.94-25.1 145.59-23.05 145.59-19.6L145.59-19.6 145.59 0 139.44 0 139.44-18.9Q139.44-20.8 138.91-21.63 138.39-22.45 137.39-22.45L137.39-22.45Q135.29-22.45 133.24-18.5L133.24-18.5 133.24 0 127.09 0 127.09-26.45 132.44-26.45 132.89-23Q134.24-25.1 135.76-26.13 137.29-27.15 139.44-27.15L139.44-27.15ZM164.08-37.7L170.23-37.05 170.23 0 164.78 0 164.48-3.05Q162.13 0.75 158.43 0.75L158.43 0.75Q154.33 0.75 152.16-2.93 149.98-6.6 149.98-13.2L149.98-13.2Q149.98-17.4 151.11-20.58 152.23-23.75 154.23-25.45 156.23-27.15 158.83-27.15L158.83-27.15Q162.03-27.15 164.08-24.5L164.08-24.5 164.08-37.7ZM160.18-3.9Q161.33-3.9 162.26-4.7 163.18-5.5 164.08-7L164.08-7 164.08-19.85Q162.48-22.55 160.43-22.55L160.43-22.55Q156.38-22.55 156.38-13.25L156.38-13.25Q156.38-8.2 157.38-6.05 158.38-3.9 160.18-3.9L160.18-3.9ZM193.63-34.55Q197.98-34.55 201.15-33.23 204.33-31.9 206.3-28.13 208.28-24.35 208.28-17.45L208.28-17.45Q208.28-7.7 204.4-3.85 200.53 0 194.28 0L194.28 0 185.93 0 185.93-34.55 193.63-34.55ZM194.58-29.8L192.28-29.8 192.28-4.75 194.63-4.75Q196.88-4.75 198.4-5.8 199.93-6.85 200.8-9.65 201.68-12.45 201.68-17.45L201.68-17.45Q201.68-22.55 200.75-25.25 199.83-27.95 198.3-28.88 196.78-29.8 194.58-29.8L194.58-29.8ZM231.73-13.85Q231.73-13.4 231.58-11.3L231.58-11.3 217.93-11.3Q218.13-7.2 219.35-5.58 220.58-3.95 222.83-3.95L222.83-3.95Q224.38-3.95 225.63-4.48 226.88-5 228.33-6.15L228.33-6.15 230.88-2.65Q227.38 0.75 222.48 0.75L222.48 0.75Q217.28 0.75 214.5-2.85 211.73-6.45 211.73-13L211.73-13Q211.73-19.55 214.38-23.35 217.03-27.15 221.88-27.15L221.88-27.15Q226.53-27.15 229.13-23.78 231.73-20.4 231.73-13.85L231.73-13.85ZM225.73-15.3L225.73-15.65Q225.73-19.4 224.83-21.13 223.93-22.85 221.93-22.85L221.93-22.85Q220.08-22.85 219.1-21.18 218.13-19.5 217.93-15.3L217.93-15.3 225.73-15.3ZM248.42-26.45L254.47-26.45 247.57 0 240.32 0 233.22-26.45 239.57-26.45 243.92-4.95 248.42-26.45ZM276.22-13.85Q276.22-13.4 276.07-11.3L276.07-11.3 262.42-11.3Q262.62-7.2 263.85-5.58 265.07-3.95 267.32-3.95L267.32-3.95Q268.87-3.95 270.12-4.48 271.37-5 272.82-6.15L272.82-6.15 275.37-2.65Q271.87 0.75 266.97 0.75L266.97 0.75Q261.77 0.75 259-2.85 256.22-6.45 256.22-13L256.22-13Q256.22-19.55 258.87-23.35 261.52-27.15 266.37-27.15L266.37-27.15Q271.02-27.15 273.62-23.78 276.22-20.4 276.22-13.85L276.22-13.85ZM270.22-15.3L270.22-15.65Q270.22-19.4 269.32-21.13 268.42-22.85 266.42-22.85L266.42-22.85Q264.57-22.85 263.6-21.18 262.62-19.5 262.42-15.3L262.42-15.3 270.22-15.3ZM286.12 0.75Q283.42 0.75 281.84-0.93 280.27-2.6 280.27-5.4L280.27-5.4 280.27-37.05 286.42-37.7 286.42-5.65Q286.42-5 286.72-4.6 287.02-4.2 287.62-4.2L287.62-4.2Q287.97-4.2 288.29-4.3 288.62-4.4 288.72-4.4L288.72-4.4 289.92-0.2Q288.22 0.75 286.12 0.75L286.12 0.75ZM302.37-27.15Q307.37-27.15 310.14-23.65 312.92-20.15 312.92-13.25L312.92-13.25Q312.92-6.65 310.12-2.95 307.31 0.75 302.37 0.75L302.37 0.75Q297.42 0.75 294.62-2.88 291.81-6.5 291.81-13.25L291.81-13.25Q291.81-19.95 294.62-23.55 297.42-27.15 302.37-27.15L302.37-27.15ZM302.37-22.5Q300.22-22.5 299.22-20.38 298.22-18.25 298.22-13.25L298.22-13.25Q298.22-8.2 299.22-6.08 300.22-3.95 302.37-3.95L302.37-3.95Q304.51-3.95 305.51-6.08 306.51-8.2 306.51-13.25L306.51-13.25Q306.51-18.3 305.51-20.4 304.51-22.5 302.37-22.5L302.37-22.5ZM329.66-27.15Q333.56-27.15 335.56-23.58 337.56-20 337.56-13.3L337.56-13.3Q337.56-6.8 335.29-3.03 333.01 0.75 328.96 0.75L328.96 0.75Q325.76 0.75 323.61-2.1L323.61-2.1 323.61 10.15 317.46 10.85 317.46-26.45 322.91-26.45 323.16-23.25Q324.46-25.25 326.06-26.2 327.66-27.15 329.66-27.15L329.66-27.15ZM327.31-3.95Q329.21-3.95 330.21-6.13 331.21-8.3 331.21-13.25L331.21-13.25Q331.21-18.45 330.36-20.5 329.51-22.55 327.71-22.55L327.71-22.55Q325.41-22.55 323.61-19.25L323.61-19.25 323.61-6.45Q325.21-3.95 327.31-3.95L327.31-3.95ZM361.01-13.85Q361.01-13.4 360.86-11.3L360.86-11.3 347.21-11.3Q347.41-7.2 348.63-5.58 349.86-3.95 352.11-3.95L352.11-3.95Q353.66-3.95 354.91-4.48 356.16-5 357.61-6.15L357.61-6.15 360.16-2.65Q356.66 0.75 351.76 0.75L351.76 0.75Q346.56 0.75 343.79-2.85 341.01-6.45 341.01-13L341.01-13Q341.01-19.55 343.66-23.35 346.31-27.15 351.16-27.15L351.16-27.15Q355.81-27.15 358.41-23.78 361.01-20.4 361.01-13.85L361.01-13.85ZM355.01-15.3L355.01-15.65Q355.01-19.4 354.11-21.13 353.21-22.85 351.21-22.85L351.21-22.85Q349.36-22.85 348.38-21.18 347.41-19.5 347.21-15.3L347.21-15.3 355.01-15.3ZM376.96-27.1Q378.11-27.1 379.01-26.75L379.01-26.75 378.01-20.85Q377.01-21.1 376.16-21.1L376.16-21.1Q374.26-21.1 373.16-19.45 372.06-17.8 371.46-14.55L371.46-14.55 371.46 0 365.31 0 365.31-26.45 370.66-26.45 371.11-21.85Q372.96-27.1 376.96-27.1L376.96-27.1Z" opacity="1" transform="matrix(1,0,0,1,0,0)" fill="#cef4eb" class="slogan-text-1" data-fill-palette-color="secondary" id="text-1"></path></svg></g></svg></g></svg></g></svg></g><g transform="matrix(1,0,0,1,0,58.247224719101254)"><svg viewBox="0 0 95.04254605716373 82.83034742425352" height="82.83034742425352" width="95.04254605716373"><g><svg xmlns="http://www.w3.org/2000/svg" xmlns:xlink="http://www.w3.org/1999/xlink" version="1.0" x="0" y="0" viewBox="1.118 4.1185758 47.921 41.76353899999999" enable-background="new 0 0 50 50" xml:space="preserve" height="82.83034742425352" width="95.04254605716373" class="icon-icon-0" data-fill-palette-color="accent" id="icon-0"><g fill="#cef4eb" data-fill-palette-color="accent"><g fill="#cef4eb" data-fill-palette-color="accent"><polygon fill="#cef4eb" points="10.821,24.951 21,32.193 21,39.035 1.118,24.891 21,11.118 21,17.9   " data-fill-palette-color="accent"></polygon></g><g fill="#cef4eb" data-fill-palette-color="accent"><polygon fill="#cef4eb" points="49.039,25.277 35.815,16.063 34.219,21.712 39.475,25.338 31.411,30.97 29,38.79 29,39.424   " data-fill-palette-color="accent"></polygon></g><rect x="25.577" y="3.983" transform="matrix(0.9606 0.278 -0.278 0.9606 8.0575 -6.8179)" fill="#cef4eb" width="4.981" height="42.035" data-fill-palette-color="accent"></rect></g></svg></g></svg></g></svg></g></svg></g><g><path d="M0 123.6c0-68.262 55.338-123.6 123.6-123.6 32.724 0 62.479 12.717 84.59 33.48l-7.867 0c-20.661-17.606-47.451-28.233-76.723-28.233-65.365 0-118.353 52.988-118.353 118.353 0 65.365 52.988 118.353 118.353 118.353 29.272 0 56.062-10.627 76.723-28.233l7.867 0c-22.111 20.762-51.865 33.48-84.59 33.48-68.262 0-123.6-55.338-123.6-123.6z" fill="#cef4eb" stroke="transparent" data-fill-palette-color="tertiary"></path></g></svg></g><defs></defs></svg><rect width="395.52" height="247.2" fill="none" stroke="none" visibility="hidden"></rect></g></svg></g></svg>